<?xml version="1.0" encoding="utf-8"?>
<!-- Generator: Adobe Illustrator 22.0.0, SVG Export Plug-In . SVG Version: 6.00 Build 0)  -->
<svg version="1.1" id="Layer_1" xmlns="http://www.w3.org/2000/svg" xmlns:xlink="http://www.w3.org/1999/xlink" x="0px" y="0px"
	 viewBox="0 0 926.3 286.1" style="enable-background:new 0 0 926.3 286.1;" xml:space="preserve">
<style type="text/css">
	.st0{fill:#FF4065;}
	.st1{fill:#55DBFF;}
	.st2{fill:#FFFFFF;}
	.st3{fill:#05001E;}
</style>
<g>
	<g>
		<rect x="47.1" y="222" class="st0" width="130.2" height="13.2"/>
		<rect x="146.5" y="222" class="st0" width="731.5" height="13.2"/>
	</g>
	<g>
		<rect x="464.4" y="235.2" class="st1" width="400.5" height="13.1"/>
		<rect x="60.6" y="235.2" class="st1" width="432.8" height="13.1"/>
	</g>
	<g>
		<rect x="33.6" y="37.3" class="st2" width="158.5" height="13.2"/>
		<rect x="205.3" y="37.3" class="st2" width="145.3" height="13.2"/>
		<rect x="376.9" y="37.3" class="st2" width="66" height="13.2"/>
		<rect x="20.5" y="50.4" class="st2" width="13.2" height="13.2"/>
		<rect x="33.6" y="195.7" class="st2" width="37.3" height="13.2"/>
		<rect x="33.6" y="208.9" class="st2" width="734.7" height="13.2"/>
		<rect x="763.2" y="208.9" class="st2" width="127.9" height="13.2"/>
		<rect x="20.5" y="50.4" class="st2" width="171.6" height="158.5"/>
		<rect x="312" y="50.4" class="st2" width="110.8" height="106.6"/>
		<rect x="155.3" y="50.4" class="st2" width="175.8" height="101.8"/>
		<rect x="412.1" y="50.4" class="st2" width="44" height="66.2"/>
		<rect x="482.5" y="50.4" class="st2" width="44.7" height="56.6"/>
		<rect x="508.9" y="50.4" class="st2" width="105.7" height="99.9"/>
		<rect x="756.1" y="50.4" class="st2" width="30.1" height="46.2"/>
		<rect x="799.4" y="50.4" class="st2" width="13.2" height="13.2"/>
		<rect x="805.7" y="103.2" class="st2" width="85.5" height="13.2"/>
		<rect x="769.3" y="100.8" class="st2" width="96.1" height="58.6"/>
		<rect x="831.9" y="129.7" class="st2" width="59.2" height="39.5"/>
		<rect x="799.4" y="50.4" class="st2" width="104.9" height="52.8"/>
		<rect x="73.2" y="142.8" class="st2" width="831.1" height="66.1"/>
		<rect x="769.3" y="63.6" class="st2" width="36.4" height="62.2"/>
		<rect x="605.9" y="50.4" class="st2" width="159.4" height="117.5"/>
		<rect x="495.7" y="37.3" class="st2" width="39.6" height="13.2"/>
		<rect x="548.5" y="37.3" class="st2" width="145.2" height="13.2"/>
		<rect x="720.2" y="37.3" class="st2" width="52.8" height="13.2"/>
		<rect x="812.5" y="37.3" class="st2" width="78.6" height="13.2"/>
		<rect x="450.6" y="77" class="st2" width="76.6" height="52.7"/>
	</g>
	<g>
		<path class="st3" d="M99.7,103.3V90.1h13.2V90h66V76.8h13.2V63.6h-13.2V50.4H46.8v13.2H33.6v118.9h13.2v13.2H60v13.2h105.7v-13.2
			h13.2v-13.2h13.2v-66h-13.2v-13.2h-39.6v13.2h-13.2v13.2h13.2v13.2h13.2v13.2h-39.6v-0.1H99.7v-13.2H86.6v-39.5H99.7z M73.2,76.8
			H60V90H46.8V63.6h26.4V76.8z"/>
		<path class="st3" d="M350.5,76.8V63.6h-13.2V50.4H218.5v13.2h-13.2v132.1h13.2v13.2l26.6,0v-13.6h13.2v-39.5h13.2v-12.8h13.2v0
			h39.6v52.8h13.2v13.2h13.2v-13.2h13.2V76.8H350.5z M244.9,76.8h-13.2V90h-13.2V63.6h26.4V76.8z M324.1,103.2h-65.9V90h65.9V103.2z
			"/>
		<path class="st3" d="M416.6,208.9v-13.6h13.2v-26.3h13.1v-26h19.5v13.2h13.9v-13.2h19.5v52.8h13.2v13.2h13.3v-13.2h13.2V63.6
			h-13.2V50.4h-13.3v13.2h-13.2V90h-13.2v13.2h-26.4V90h-13.2V63.6h-13.2V50.4h-39.6v13.2h26.4v13.2h-13.2V90h-13.2V63.6h-13.2
			v132.1h13.2v13.2"/>
		<path class="st3" d="M693.8,76.8V63.6h-13.2V50.4H561.4v12.9h-12.8v119.1h13.2v13.2H575v13.2h105.7v-13.2h13.2v-13.2h13.2V76.8
			H693.8z M588.2,76.8H575V90h-13.2V63.6h26.4V76.8z M667.4,156.1h-52.9v-13.3h-13.2v-39.5h13.2V90h52.9V156.1z"/>
		<path class="st3" d="M891.2,63.6V90H878v13.2h-25.7v13.2h-13.2v13.2h13.2v13.2H878v13.2h13.2v39.6H878v13.2h-38.9v-13.2h-13.2
			v-13.2h-13.2v-13.2h-13.2v13.2h-13.2v13.2H773v13.2h-39.6v-13.2h-13.2v-26.4h13.2v-13.2h13.2v-13.2h13.2v-13.2h-13.2v-13.2h-13.2
			v-13.2h-13.2V63.6h13.2V90h13.2V76.8h13.2V63.6H773v13.2h13.2V90h13.2V76.8h13.2V63.6h13.2V50.4H878v13.2H891.2z M733.4,63.6V50.4
			h26.4v13.2H733.4z"/>
	</g>
</g>
</svg>
